<?xml version="1.0" encoding="utf-8"?>
<!-- Generator: Adobe Illustrator 23.0.1, SVG Export Plug-In . SVG Version: 6.00 Build 0)  -->
<svg version="1.1" xmlns="http://www.w3.org/2000/svg" xmlns:xlink="http://www.w3.org/1999/xlink" x="0px" y="0px"
	 viewBox="0 0 37.81 47.86" style="enable-background:new 0 0 37.81 47.86;" xml:space="preserve">
<style type="text/css">
	.st0{display:none;}
	.st1{display:inline;fill:#FFFFFF;}
	.st2{display:inline;}
	.st3{fill:#414757;stroke:#414757;stroke-width:4;stroke-miterlimit:10;}
	.st4{fill:#FFFFFF;}
	.st5{fill:#414757;}
	.st6{fill:#414757;stroke:#414757;stroke-width:1.4731;stroke-miterlimit:10;}
</style>
<g id="Layer_1" class="st0">
	<rect id="XMLID_2_" x="-56.09" y="-47.72" class="st1" width="150" height="150"/>
	<g id="XMLID_1_" class="st2">
		<path id="XMLID_610_" class="st3" d="M45.8,39.92c5.71-6.39,9.21-14.79,9.21-24.03c0-19.94-16.16-36.1-36.1-36.1
			s-36.1,16.16-36.1,36.1c0,8.85,3.2,16.95,8.49,23.23l27.56,35.65L45.8,39.92z"/>
		<circle id="XMLID_599_" class="st4" cx="18.91" cy="15.89" r="21.28"/>
	</g>
	<g class="st2">
		<path class="st5" d="M24.38,23.39H12.62l-1.89,5.5H1.95L14.01-2.78h8.99l12.05,31.67h-8.78L24.38,23.39z M22.2,17.13L18.5,6.59
			l-3.7,10.54H22.2z"/>
	</g>
</g>
<g id="Layer_1_copy" class="st0">
	<g class="st2">
		<g id="XMLID_3_">
			<path id="XMLID_5_" class="st6" d="M28.56,28.16c2.1-2.35,3.39-5.45,3.39-8.85c0-7.34-5.95-13.3-13.3-13.3s-13.3,5.95-13.3,13.3
				c0,3.26,1.18,6.24,3.13,8.56L18.64,41L28.56,28.16z"/>
			<circle id="XMLID_4_" class="st4" cx="18.66" cy="19.31" r="7.83"/>
		</g>
		<g>
			<path class="st5" d="M20.67,22.08h-4.33l-0.7,2.03h-3.23l4.44-11.66h3.31L24.6,24.1h-3.23L20.67,22.08z M19.87,19.77l-1.36-3.88
				l-1.36,3.88H19.87z"/>
		</g>
	</g>
	<g class="st2">
		<g id="XMLID_6_">
			<path id="XMLID_9_" class="st6" d="M53.56,39.16c2.1-2.35,3.39-5.45,3.39-8.85c0-7.34-5.95-13.3-13.3-13.3s-13.3,5.95-13.3,13.3
				c0,3.26,1.18,6.24,3.13,8.56L43.64,52L53.56,39.16z"/>
			<circle id="XMLID_8_" class="st4" cx="43.66" cy="30.31" r="7.83"/>
		</g>
		<g>
			<path class="st5" d="M45.67,33.08h-4.33l-0.7,2.03h-3.23l4.44-11.66h3.31L49.6,35.1h-3.23L45.67,33.08z M44.87,30.77l-1.36-3.88
				l-1.36,3.88H44.87z"/>
		</g>
	</g>
</g>
<g id="Layer_3">
	<g>
		<g id="XMLID_14_">
			<path id="XMLID_16_" class="st6" d="M30.4,28.56c2.1-2.35,3.39-5.45,3.39-8.85c0-7.34-5.95-13.3-13.3-13.3S7.2,12.37,7.2,19.71
				c0,3.26,1.18,6.24,3.13,8.56l10.15,13.13L30.4,28.56z"/>
			<circle id="XMLID_15_" class="st4" cx="20.49" cy="19.71" r="7.83"/>
		</g>
		<g>
			<path class="st5" d="M22.51,22.47h-4.33l-0.7,2.03h-3.23l4.44-11.66H22l4.44,11.66H23.2L22.51,22.47z M21.7,20.17l-1.36-3.88
				l-1.36,3.88H21.7z"/>
		</g>
	</g>
</g>
</svg>
